osimModel_states
version=1
nRows=75
nColumns=7
inDegrees=yes
endheader
time	q1	q2	q3	q1_u	q2_u	q3_u
      5.04047575	    -27.75343470	     55.50686937	     10.23521142	     91.27695372	   -182.55390743	     91.27695370
      5.08478591	    -24.59904786	     49.19809569	     13.38959826	     43.93579197	    -87.87158392	     43.93579196
      5.12909608	    -24.30026404	     48.60052805	     13.68838208	    -31.26337726	     62.52675451	    -31.26337725
      5.16508108	    -26.36032020	     52.72064037	     11.62832592	    -79.02602220	    158.05204438	    -79.02602218
      5.20106608	    -29.63223647	     59.26447291	      8.35640965	    -97.94565887	    195.89131772	    -97.94565885
      5.25457664	    -34.59405256	     69.18810509	      3.39459356	    -79.93166462	    159.86332922	    -79.93166460
      5.30808721	    -37.59793800	     75.19587596	      0.39070812	    -28.78867658	     57.57735314	    -28.78867656
      5.36159778	    -37.49294903	     74.98589803	      0.49569709	     32.60305238	    -65.20610475	     32.60305237
      5.41510835	    -34.31620903	     68.63241804	      3.67243709	     82.34580403	   -164.69160803	     82.34580400
      5.49541698	    -26.83734265	     53.67468527	     11.15130347	     84.03598120	   -168.07196238	     84.03598118
      5.53988346	    -24.23022295	     48.46044588	     13.75842316	     26.80174406	    -53.60348811	     26.80174405
      5.57754217	    -24.44489473	     48.88978944	     13.54375138	    -37.66805013	     75.33610025	    -37.66805012
      5.61520089	    -26.82598610	     53.65197218	     11.16266001	    -83.89246720	    167.78493438	    -83.89246718
      5.65285960	    -30.35325503	     60.70651003	      7.63539109	    -98.26172254	    196.52344505	    -98.26172251
      5.70711271	    -35.21175112	     70.42350220	      2.77689500	    -73.69109001	    147.38218000	    -73.69108999
      5.76136582	    -37.80291105	     75.60582207	      0.18573507	    -18.78475206	     37.56950412	    -18.78475205
      5.81561893	    -37.12727393	     74.25454784	      0.86137218	     42.93943435	    -85.87886867	     42.93943433
      5.86987204	    -33.43308935	     66.86617868	      4.55555676	     88.62500608	   -177.25001213	     88.62500605
      5.92155026	    -28.48447879	     56.96895755	      9.50416733	     94.86859441	   -189.73718879	     94.86859438
      5.96388231	    -25.10459893	     50.20919784	     12.88404718	     58.00140617	   -116.00281233	     58.00140616
      6.00621436	    -24.05619288	     48.11238574	     13.93245323	    -11.22809320	     22.45618640	    -11.22809320
      6.03819037	    -25.25282269	     50.50564535	     12.73582343	    -61.24295083	    122.48590164	    -61.24295082
      6.07016638	    -27.75142124	     55.50284245	     10.23722488	    -91.11945602	    182.23891201	    -91.11945599
      6.11308337	    -31.89259453	     63.78518904	      6.09605158	    -95.71986414	    191.43972826	    -95.71986412
      6.17034796	    -36.44531378	     72.89062754	      1.54333234	    -56.84993350	    113.69986698	    -56.84993348
      6.22761255	    -37.93832174	     75.87664345	      0.05032438	      6.50329208	    -13.00658417	      6.50329208
      6.28487713	    -35.75051367	     71.50102731	      2.23813245	     67.24863133	   -134.49726263	     67.24863130
      6.34214172	    -30.80615999	     61.61231995	      7.18248613	     98.01781900	   -196.03563797	     98.01781897
      6.38915180	    -26.43711054	     52.87422106	     11.55153557	     79.83518867	   -159.67037733	     79.83518866
      6.43437553	    -24.10601239	     48.21202476	     13.88263372	     17.22512715	    -34.45025430	     17.22512715
      6.46871448	    -24.53611254	     49.07222506	     13.45253357	    -41.31082810	     82.62165618	    -41.31082809
      6.50305344	    -26.74264178	     53.48528353	     11.24600434	    -83.07097502	    166.14195003	    -83.07097500
      6.53739239	    -29.92912997	     59.85825991	      8.05951615	    -98.14907083	    196.29814162	    -98.14907080
      6.59134357	    -34.86279866	     69.72559730	      3.12584746	    -77.31188600	    154.62377198	    -77.31188598
      6.64529474	    -37.69653167	     75.39306331	      0.29211445	    -24.38763548	     48.77527095	    -24.38763547
      6.69924592	    -37.33682655	     74.67365308	      0.65181957	     37.32769580	    -74.65539158	     37.32769578
      6.75319710	    -33.91391704	     67.82783406	      4.07472907	     85.38701731	   -170.77403460	     85.38701728
      6.81878264	    -27.70687833	     55.41375664	     10.28176778	     90.84808339	   -181.69616677	     90.84808337
      6.86161990	    -24.64781779	     49.29563556	     13.34082832	     45.25926813	    -90.51853625	     45.25926812
      6.90445716	    -24.23927272	     48.47854541	     13.74937340	    -27.27628709	     54.55257418	    -27.27628709
      6.93901459	    -26.07300750	     52.14601496	     11.91563862	    -75.17228161	    150.34456320	    -75.17228159
      6.97357202	    -29.12463474	     58.24926945	      8.86401138	    -96.87854143	    193.75708284	    -96.87854141
      7.02692700	    -34.15052116	     68.30104229	      3.83812496	    -83.56907161	    167.13814318	    -83.56907158
      7.08028197	    -37.41561043	     74.83122083	      0.57303569	    -34.90869900	     69.81739798	    -34.90869898
      7.13363695	    -37.65493606	     75.30987210	      0.33371006	     26.20722695	    -52.41445389	     26.20722694
      7.18699193	    -34.78332048	     69.56664094	      3.20532564	     78.07860755	   -156.15721507	     78.07860752
      7.26016504	    -27.98777577	     55.97555151	     10.00087035	     92.43249832	   -184.86499662	     92.43249830
      7.30400621	    -24.74718235	     49.49436468	     13.24146376	     48.28005972	    -96.56011943	     48.28005971
      7.34784739	    -24.21652245	     48.43304488	     13.77212366	    -25.52011657	     51.04023313	    -25.52011656
      7.38089923	    -25.88897318	     51.77794634	     12.09967293	    -72.42895154	    144.85790306	    -72.42895152
      7.41395107	    -28.73658060	     57.47316117	      9.25206552	    -95.68092056	    191.36184110	    -95.68092054
      7.46839981	    -33.89972541	     67.79945079	      4.08892071	    -85.41262880	    170.82525758	    -85.41262878
      7.52284855	    -37.34611834	     74.69223666	      0.64252777	    -36.92730792	     73.85461583	    -36.92730791
      7.57729728	    -37.67206161	     75.34412320	      0.31658451	     25.32798966	    -50.65597931	     25.32798965
      7.63174602	    -34.75662811	     69.51325619	      3.23201801	     78.28289276	   -156.56578549	     78.28289273
      7.70380957	    -28.06224060	     56.12448117	      9.92640552	     92.77385097	   -185.54770192	     92.77385095
      7.74820035	    -24.76221102	     49.52442202	     13.22643509	     48.60093094	    -97.20186187	     48.60093093
      7.79259114	    -24.22854966	     48.45709929	     13.76009646	    -26.02800252	     52.05600504	    -26.02800252
      7.82576393	    -25.92340186	     51.84680370	     12.06524425	    -72.85661216	    145.71322431	    -72.85661215
      7.85893672	    -28.79105205	     57.58210407	      9.19759407	    -95.80880759	    191.61761515	    -95.80880756
      7.91422412	    -34.01706203	     68.03412404	      3.97158408	    -84.50322088	    169.00644174	    -84.50322086
      7.96951152	    -37.42350552	     74.84701101	      0.56514060	    -34.47736809	     68.95473616	    -34.47736807
      8.02479892	    -37.58681345	     75.17362687	      0.40183267	     28.76321258	    -57.52642516	     28.76321257
      8.08008632	    -34.44426871	     68.88853739	      3.54437741	     81.07023865	   -162.14047728	     81.07023863
      8.15423035	    -27.51958469	     55.03916936	     10.46906142	     89.41651726	   -178.83303449	     89.41651724
      8.19732514	    -24.55529011	     49.11058019	     13.43335601	     41.49377981	    -82.98755961	     41.49377980
      8.24041992	    -24.32973407	     48.65946811	     13.65891205	    -31.62088760	     63.24177519	    -31.62088759
      8.27550181	    -26.32589643	     52.65179283	     11.66274969	    -78.20200988	    156.40401974	    -78.20200986
      8.31058370	    -29.48873776	     58.97747548	      8.49990836	    -97.46730420	    194.93460837	    -97.46730417
      8.36395455	    -34.45342335	     68.90684666	      3.53522277	    -80.92941516	    161.85883029	    -80.92941513
      8.41732539	    -37.53067616	     75.06135229	      0.45796996	    -30.73581253	     61.47162504	    -30.73581251
      8.47069623	    -37.54066318	     75.08132633	      0.44798294	     30.37866120	    -60.75732239	     30.37866119
      8.52406708	    -34.47954035	     68.95908066	      3.50910577	     80.71400233	   -161.42800463	     80.71400230
      8.60141657	    -27.28002139	     54.56004275	     10.70862473	     87.55155197	   -175.10310391	     87.55155194
      8.64758929	    -24.34779487	     48.69558971	     13.64085125	     32.20072980	    -64.40145959	     32.20072979
